<svg
                xmlns="http://www.w3.org/2000/svg"
                xmlns:xlink="http://www.w3.org/1999/xlink"
                version="1.1"
                id="Layer_2_00000110442368763714192000000013104631710973740196_62ff96a196be6"

                viewBox="0 0 1353.2 744.9"
                style="

                  display: block;
                  transform: scale(1, 1);
                  transition-property: none;
                "
                xml:space="preserve"
                aria-hidden="true"

              >
              <text x="1160" y="730"  font-size="80" fill="red">HIGH</text>     
              <text x="0" y="730"  font-size="80" fill="blue">LOW</text>     
                <defs>
                  <linearGradient
                    class="cerosgradient"
                    data-cerosgradient="true"
                    id="CerosGradient_ida8d2fd22c"
                    gradientUnits="userSpaceOnUse"
                    x1="50%"
                    y1="100%"
                    x2="50%"
                    y2="0%"
                  >
                    <stop
                      offset="0%"
                      stop-color="#d1d1d1"
                      style="transition-property: none"
                    ></stop>
                    <stop
                      offset="100%"
                      stop-color="#d1d1d1"
                      style="transition-property: none"
                    ></stop>
                  </linearGradient>
                  <linearGradient></linearGradient>
                </defs>
                <style type="text/css">
                  .st0-62ff96a196be6 {
                    fill: #FF0000 ;
                  }
                  .st1-62ff96a196be6 {
                    fill: #BF003F;
                  }
                  .st2-62ff96a196be6 {
                    fill: #80007F;
                  }
                  .st3-62ff96a196be6 {
                    fill: #4000BF;
                  }
                  .st4-62ff96a196be6 {
                    fill: #0000FF;
                  }
                </style>
                <g id="Layer_1-262ff96a196be6">
                  <g>
                    <path
                      class="st0-62ff96a196be6"
                      d="M1081.4,398.3c52.3,75.9,83.8,167.2,86.3,265.7h185.4c-2.6-139.2-47.2-268.2-121.7-374.7L1081.4,398.3    L1081.4,398.3z"
                      style="transition-property: none"
                    ></path>
                    <path
                      class="st1-62ff96a196be6"
                      d="M840.5,213.4c90.4,32,168.7,89.7,226,164.3l150-109C1136.4,162.8,1025.8,81.2,897.8,37L840.5,213.4    L840.5,213.4z"
                      style="transition-property: none"
                    ></path>
                    <path
                      class="st2-62ff96a196be6"
                      d="M536.9,205.6c44.3-13.1,91.2-20.2,139.7-20.2s95.4,7.1,139.7,20.2l57.3-176.4C811.3,10.2,745.2,0,676.6,0    s-134.7,10.2-197,29.1L536.9,205.6z"
                      style="transition-property: none"
                    ></path>
                    <path
                      class="st3-62ff96a196be6"
                      d="M286.7,377.7c57.3-74.6,135.6-132.4,226-164.3L455.4,37c-128,44.2-238.6,125.8-318.7,231.7L286.7,377.7    L286.7,377.7z"
                      style="transition-property: none"
                    ></path>
                    <path
                      class="st4-62ff96a196be6"
                      d="M185.4,664c2.5-98.5,34-189.9,86.3-265.7l-150-109C47.2,395.8,2.6,524.8,0,664H185.4z"
                      style="transition-property: none"
                    ></path>
                  </g>
                  <path
                    id="pointneedle"
                    d="M687.9,627.2l-461.7-92.3l424.2,204.3c31.7,15.2,69.5-0.7,80.7-34.1l0.7-2.1   C743,669.6,722.4,634.1,687.9,627.2L687.9,627.2z M715.5,698.6c-7.2,21.4-30.3,32.9-51.6,25.7c-21.4-7.2-32.9-30.3-25.7-51.6   c7.2-21.4,30.3-32.9,51.6-25.7S722.7,677.3,715.5,698.6z"
                    style="
                      transition: all 0.3s ease-in-out 0s;
                      transform-origin: 730px 650px;
                    "
                  ></path>
                </g>
                  
              </svg>